ISO-10303-21;
HEADER;
/* Generated by software containing ST-Developer
 * from STEP Tools, Inc. (www.steptools.com) 
 */

FILE_DESCRIPTION(
/* description */ (''),
/* implementation_level */ '2;1');

FILE_NAME(
/* name */ 'bd25af02-44ce-4a91-9212-1afb80721e24.stp',
/* time_stamp */ '2026-09-19T10:39:23Z',
/* author */ (''),
/* organization */ (''),
/* preprocessor_version */ 'ST-DEVELOPER v20.2',
/* originating_system */ 'Autodesk Translation Framework v15.15.0.0',
/* authorisation */ '');

FILE_SCHEMA (('AUTOMOTIVE_DESIGN { 1 0 10303 214 3 1 1 }'));
ENDSEC;

DATA;
#10=MECHANICAL_DESIGN_GEOMETRIC_PRESENTATION_REPRESENTATION('',(#13),#251);
#11=SHAPE_REPRESENTATION_RELATIONSHIP('SRR','None',#258,#12);
#12=ADVANCED_BREP_SHAPE_REPRESENTATION('',(#14),#250);
#13=STYLED_ITEM('',(#268),#14);
#14=MANIFOLD_SOLID_BREP('Body1',#133);
#15=LINE('',#224,#21);
#16=LINE('',#230,#22);
#17=LINE('',#238,#23);
#18=LINE('',#240,#24);
#19=LINE('',#241,#25);
#20=LINE('',#244,#26);
#21=VECTOR('',#182,8.25);
#22=VECTOR('',#189,10.);
#23=VECTOR('',#200,10.);
#24=VECTOR('',#201,10.);
#25=VECTOR('',#202,10.);
#26=VECTOR('',#205,3.);
#27=CYLINDRICAL_SURFACE('',#153,8.25);
#28=CYLINDRICAL_SURFACE('',#162,3.);
#29=FACE_BOUND('',#46,.T.);
#30=PLANE('',#151);
#31=PLANE('',#155);
#32=PLANE('',#160);
#33=PLANE('',#161);
#34=PLANE('',#165);
#35=FACE_OUTER_BOUND('',#44,.T.);
#36=FACE_OUTER_BOUND('',#45,.T.);
#37=FACE_OUTER_BOUND('',#47,.T.);
#38=FACE_OUTER_BOUND('',#48,.T.);
#39=FACE_OUTER_BOUND('',#49,.T.);
#40=FACE_OUTER_BOUND('',#50,.T.);
#41=FACE_OUTER_BOUND('',#51,.T.);
#42=FACE_OUTER_BOUND('',#52,.T.);
#43=FACE_OUTER_BOUND('',#53,.T.);
#44=EDGE_LOOP('',(#90,#91,#92,#93));
#45=EDGE_LOOP('',(#94));
#46=EDGE_LOOP('',(#95));
#47=EDGE_LOOP('',(#96,#97,#98,#99));
#48=EDGE_LOOP('',(#100,#101));
#49=EDGE_LOOP('',(#102,#103,#104,#105));
#50=EDGE_LOOP('',(#106));
#51=EDGE_LOOP('',(#107,#108,#109,#110));
#52=EDGE_LOOP('',(#111,#112,#113,#114,#115,#116,#117,#118));
#53=EDGE_LOOP('',(#119,#120,#121));
#54=CIRCLE('',#148,7.75);
#55=CIRCLE('',#149,0.5);
#56=CIRCLE('',#150,8.25);
#57=CIRCLE('',#152,3.);
#58=CIRCLE('',#154,8.25);
#59=CIRCLE('',#156,3.);
#60=CIRCLE('',#158,1.);
#61=CIRCLE('',#159,7.25);
#62=CIRCLE('',#163,3.);
#63=CIRCLE('',#164,3.);
#64=VERTEX_POINT('',#214);
#65=VERTEX_POINT('',#216);
#66=VERTEX_POINT('',#220);
#67=VERTEX_POINT('',#223);
#68=VERTEX_POINT('',#227);
#69=VERTEX_POINT('',#228);
#70=VERTEX_POINT('',#232);
#71=VERTEX_POINT('',#237);
#72=VERTEX_POINT('',#239);
#73=VERTEX_POINT('',#243);
#74=EDGE_CURVE('',#64,#64,#54,.T.);
#75=EDGE_CURVE('',#64,#65,#55,.T.);
#76=EDGE_CURVE('',#65,#65,#56,.T.);
#77=EDGE_CURVE('',#66,#66,#57,.T.);
#78=EDGE_CURVE('',#65,#67,#15,.T.);
#79=EDGE_CURVE('',#67,#67,#58,.T.);
#80=EDGE_CURVE('',#68,#69,#59,.T.);
#81=EDGE_CURVE('',#69,#68,#16,.T.);
#82=EDGE_CURVE('',#67,#70,#60,.T.);
#83=EDGE_CURVE('',#70,#70,#61,.T.);
#84=EDGE_CURVE('',#68,#71,#17,.T.);
#85=EDGE_CURVE('',#71,#72,#18,.T.);
#86=EDGE_CURVE('',#72,#69,#19,.T.);
#87=EDGE_CURVE('',#66,#73,#20,.T.);
#88=EDGE_CURVE('',#73,#71,#62,.T.);
#89=EDGE_CURVE('',#72,#73,#63,.T.);
#90=ORIENTED_EDGE('',*,*,#74,.T.);
#91=ORIENTED_EDGE('',*,*,#75,.T.);
#92=ORIENTED_EDGE('',*,*,#76,.T.);
#93=ORIENTED_EDGE('',*,*,#75,.F.);
#94=ORIENTED_EDGE('',*,*,#74,.F.);
#95=ORIENTED_EDGE('',*,*,#77,.T.);
#96=ORIENTED_EDGE('',*,*,#76,.F.);
#97=ORIENTED_EDGE('',*,*,#78,.T.);
#98=ORIENTED_EDGE('',*,*,#79,.F.);
#99=ORIENTED_EDGE('',*,*,#78,.F.);
#100=ORIENTED_EDGE('',*,*,#80,.F.);
#101=ORIENTED_EDGE('',*,*,#81,.F.);
#102=ORIENTED_EDGE('',*,*,#79,.T.);
#103=ORIENTED_EDGE('',*,*,#82,.T.);
#104=ORIENTED_EDGE('',*,*,#83,.T.);
#105=ORIENTED_EDGE('',*,*,#82,.F.);
#106=ORIENTED_EDGE('',*,*,#83,.F.);
#107=ORIENTED_EDGE('',*,*,#81,.T.);
#108=ORIENTED_EDGE('',*,*,#84,.T.);
#109=ORIENTED_EDGE('',*,*,#85,.T.);
#110=ORIENTED_EDGE('',*,*,#86,.T.);
#111=ORIENTED_EDGE('',*,*,#77,.F.);
#112=ORIENTED_EDGE('',*,*,#87,.T.);
#113=ORIENTED_EDGE('',*,*,#88,.T.);
#114=ORIENTED_EDGE('',*,*,#84,.F.);
#115=ORIENTED_EDGE('',*,*,#80,.T.);
#116=ORIENTED_EDGE('',*,*,#86,.F.);
#117=ORIENTED_EDGE('',*,*,#89,.T.);
#118=ORIENTED_EDGE('',*,*,#87,.F.);
#119=ORIENTED_EDGE('',*,*,#89,.F.);
#120=ORIENTED_EDGE('',*,*,#85,.F.);
#121=ORIENTED_EDGE('',*,*,#88,.F.);
#122=TOROIDAL_SURFACE('',#147,7.75,0.5);
#123=TOROIDAL_SURFACE('',#157,7.25,1.);
#124=ADVANCED_FACE('',(#35),#122,.T.);
#125=ADVANCED_FACE('',(#36,#29),#30,.T.);
#126=ADVANCED_FACE('',(#37),#27,.T.);
#127=ADVANCED_FACE('',(#38),#31,.T.);
#128=ADVANCED_FACE('',(#39),#123,.T.);
#129=ADVANCED_FACE('',(#40),#32,.F.);
#130=ADVANCED_FACE('',(#41),#33,.F.);
#131=ADVANCED_FACE('',(#42),#28,.F.);
#132=ADVANCED_FACE('',(#43),#34,.T.);
#133=CLOSED_SHELL('',(#124,#125,#126,#127,#128,#129,#130,#131,#132));
#134=DERIVED_UNIT_ELEMENT(#136,1.);
#135=DERIVED_UNIT_ELEMENT(#253,-3.);
#136=(
MASS_UNIT()
NAMED_UNIT(*)
SI_UNIT(.KILO.,.GRAM.)
);
#137=DERIVED_UNIT((#134,#135));
#138=MEASURE_REPRESENTATION_ITEM('density measure',
POSITIVE_RATIO_MEASURE(7850.),#137);
#139=PROPERTY_DEFINITION_REPRESENTATION(#144,#141);
#140=PROPERTY_DEFINITION_REPRESENTATION(#145,#142);
#141=REPRESENTATION('material name',(#143),#250);
#142=REPRESENTATION('density',(#138),#250);
#143=DESCRIPTIVE_REPRESENTATION_ITEM('Steel','Steel');
#144=PROPERTY_DEFINITION('material property','material name',#260);
#145=PROPERTY_DEFINITION('material property','density of part',#260);
#146=AXIS2_PLACEMENT_3D('',#212,#166,#167);
#147=AXIS2_PLACEMENT_3D('',#213,#168,#169);
#148=AXIS2_PLACEMENT_3D('',#215,#170,#171);
#149=AXIS2_PLACEMENT_3D('',#217,#172,#173);
#150=AXIS2_PLACEMENT_3D('',#218,#174,#175);
#151=AXIS2_PLACEMENT_3D('',#219,#176,#177);
#152=AXIS2_PLACEMENT_3D('',#221,#178,#179);
#153=AXIS2_PLACEMENT_3D('',#222,#180,#181);
#154=AXIS2_PLACEMENT_3D('',#225,#183,#184);
#155=AXIS2_PLACEMENT_3D('',#226,#185,#186);
#156=AXIS2_PLACEMENT_3D('',#229,#187,#188);
#157=AXIS2_PLACEMENT_3D('',#231,#190,#191);
#158=AXIS2_PLACEMENT_3D('',#233,#192,#193);
#159=AXIS2_PLACEMENT_3D('',#234,#194,#195);
#160=AXIS2_PLACEMENT_3D('',#235,#196,#197);
#161=AXIS2_PLACEMENT_3D('',#236,#198,#199);
#162=AXIS2_PLACEMENT_3D('',#242,#203,#204);
#163=AXIS2_PLACEMENT_3D('',#245,#206,#207);
#164=AXIS2_PLACEMENT_3D('',#246,#208,#209);
#165=AXIS2_PLACEMENT_3D('',#247,#210,#211);
#166=DIRECTION('axis',(0.,0.,1.));
#167=DIRECTION('refdir',(1.,0.,0.));
#168=DIRECTION('center_axis',(0.,0.,1.));
#169=DIRECTION('ref_axis',(1.,0.,0.));
#170=DIRECTION('center_axis',(0.,0.,-1.));
#171=DIRECTION('ref_axis',(1.,0.,0.));
#172=DIRECTION('center_axis',(1.22464679914735E-16,-1.,0.));
#173=DIRECTION('ref_axis',(-1.,-1.22464679914735E-16,0.));
#174=DIRECTION('center_axis',(0.,0.,1.));
#175=DIRECTION('ref_axis',(1.,0.,0.));
#176=DIRECTION('center_axis',(0.,0.,1.));
#177=DIRECTION('ref_axis',(1.,0.,0.));
#178=DIRECTION('center_axis',(0.,0.,-1.));
#179=DIRECTION('ref_axis',(1.,0.,0.));
#180=DIRECTION('center_axis',(0.,0.,1.));
#181=DIRECTION('ref_axis',(1.,0.,0.));
#182=DIRECTION('',(0.,0.,-1.));
#183=DIRECTION('center_axis',(0.,0.,-1.));
#184=DIRECTION('ref_axis',(1.,0.,0.));
#185=DIRECTION('center_axis',(0.,0.,1.));
#186=DIRECTION('ref_axis',(1.,0.,0.));
#187=DIRECTION('center_axis',(0.,0.,-1.));
#188=DIRECTION('ref_axis',(1.,0.,0.));
#189=DIRECTION('',(-1.06831260354642E-16,1.,0.));
#190=DIRECTION('center_axis',(0.,0.,1.));
#191=DIRECTION('ref_axis',(1.,0.,0.));
#192=DIRECTION('center_axis',(1.22464679914735E-16,-1.,0.));
#193=DIRECTION('ref_axis',(-1.,-1.22464679914735E-16,0.));
#194=DIRECTION('center_axis',(0.,0.,1.));
#195=DIRECTION('ref_axis',(1.,0.,0.));
#196=DIRECTION('center_axis',(0.,0.,1.));
#197=DIRECTION('ref_axis',(1.,0.,0.));
#198=DIRECTION('center_axis',(1.,1.06831260354642E-16,0.));
#199=DIRECTION('ref_axis',(1.06831260354642E-16,-1.,0.));
#200=DIRECTION('',(0.,0.,-1.));
#201=DIRECTION('',(1.06831260354642E-16,-1.,0.));
#202=DIRECTION('',(0.,0.,1.));
#203=DIRECTION('center_axis',(0.,0.,-1.));
#204=DIRECTION('ref_axis',(1.,0.,0.));
#205=DIRECTION('',(0.,0.,-1.));
#206=DIRECTION('center_axis',(0.,0.,-1.));
#207=DIRECTION('ref_axis',(1.,0.,0.));
#208=DIRECTION('center_axis',(0.,0.,-1.));
#209=DIRECTION('ref_axis',(1.,0.,0.));
#210=DIRECTION('center_axis',(0.,0.,1.));
#211=DIRECTION('ref_axis',(1.,0.,0.));
#212=CARTESIAN_POINT('',(0.,0.,0.));
#213=CARTESIAN_POINT('Origin',(0.,0.,11.));
#214=CARTESIAN_POINT('',(-7.75,9.49101269339199E-16,11.5));
#215=CARTESIAN_POINT('Origin',(0.,0.,11.5));
#216=CARTESIAN_POINT('',(-8.25,-1.01033360929657E-15,11.));
#217=CARTESIAN_POINT('Origin',(-7.75,-9.49101269339199E-16,11.));
#218=CARTESIAN_POINT('Origin',(0.,0.,11.));
#219=CARTESIAN_POINT('Origin',(0.,0.,11.5));
#220=CARTESIAN_POINT('',(-3.,3.67394039744206E-16,11.5));
#221=CARTESIAN_POINT('Origin',(0.,0.,11.5));
#222=CARTESIAN_POINT('Origin',(0.,0.,0.));
#223=CARTESIAN_POINT('',(-8.25,1.01033360929657E-15,1.));
#224=CARTESIAN_POINT('',(-8.25,-1.01033360929657E-15,0.));
#225=CARTESIAN_POINT('Origin',(0.,0.,1.));
#226=CARTESIAN_POINT('Origin',(2.25,0.,9.));
#227=CARTESIAN_POINT('',(1.5,2.59807621135332,9.));
#228=CARTESIAN_POINT('',(1.5,-2.59807621135332,9.));
#229=CARTESIAN_POINT('Origin',(0.,0.,9.));
#230=CARTESIAN_POINT('',(1.5,1.29903810567666,9.));
#231=CARTESIAN_POINT('Origin',(0.,0.,1.));
#232=CARTESIAN_POINT('',(-7.25,-8.87868929381831E-16,0.));
#233=CARTESIAN_POINT('Origin',(-7.25,-8.87868929381831E-16,1.));
#234=CARTESIAN_POINT('Origin',(0.,0.,0.));
#235=CARTESIAN_POINT('Origin',(0.,0.,0.));
#236=CARTESIAN_POINT('Origin',(1.5,2.59807621135332,9.));
#237=CARTESIAN_POINT('',(1.5,2.59807621135332,1.4));
#238=CARTESIAN_POINT('',(1.5,2.59807621135332,9.));
#239=CARTESIAN_POINT('',(1.5,-2.59807621135332,1.4));
#240=CARTESIAN_POINT('',(1.5,0.,1.4));
#241=CARTESIAN_POINT('',(1.5,-2.59807621135332,9.));
#242=CARTESIAN_POINT('Origin',(0.,0.,9.));
#243=CARTESIAN_POINT('',(-3.,3.67394039744206E-16,1.4));
#244=CARTESIAN_POINT('',(-3.,3.67394039744206E-16,9.));
#245=CARTESIAN_POINT('Origin',(0.,0.,1.4));
#246=CARTESIAN_POINT('Origin',(0.,0.,1.4));
#247=CARTESIAN_POINT('Origin',(-0.75,0.,1.4));
#248=UNCERTAINTY_MEASURE_WITH_UNIT(LENGTH_MEASURE(0.01),#252,
'DISTANCE_ACCURACY_VALUE',
'Maximum model space distance between geometric entities at asserted c
onnectivities');
#249=UNCERTAINTY_MEASURE_WITH_UNIT(LENGTH_MEASURE(0.01),#252,
'DISTANCE_ACCURACY_VALUE',
'Maximum model space distance between geometric entities at asserted c
onnectivities');
#250=(
GEOMETRIC_REPRESENTATION_CONTEXT(3)
GLOBAL_UNCERTAINTY_ASSIGNED_CONTEXT((#248))
GLOBAL_UNIT_ASSIGNED_CONTEXT((#252,#254,#255))
REPRESENTATION_CONTEXT('','3D')
);
#251=(
GEOMETRIC_REPRESENTATION_CONTEXT(3)
GLOBAL_UNCERTAINTY_ASSIGNED_CONTEXT((#249))
GLOBAL_UNIT_ASSIGNED_CONTEXT((#252,#254,#255))
REPRESENTATION_CONTEXT('','3D')
);
#252=(
LENGTH_UNIT()
NAMED_UNIT(*)
SI_UNIT(.MILLI.,.METRE.)
);
#253=(
LENGTH_UNIT()
NAMED_UNIT(*)
SI_UNIT($,.METRE.)
);
#254=(
NAMED_UNIT(*)
PLANE_ANGLE_UNIT()
SI_UNIT($,.RADIAN.)
);
#255=(
NAMED_UNIT(*)
SI_UNIT($,.STERADIAN.)
SOLID_ANGLE_UNIT()
);
#256=SHAPE_DEFINITION_REPRESENTATION(#257,#258);
#257=PRODUCT_DEFINITION_SHAPE('',$,#260);
#258=SHAPE_REPRESENTATION('',(#146),#250);
#259=PRODUCT_DEFINITION_CONTEXT('part definition',#264,'design');
#260=PRODUCT_DEFINITION('2026-09-19-14-53-57-368','Knob v7',#261,#259);
#261=PRODUCT_DEFINITION_FORMATION('',$,#266);
#262=PRODUCT_RELATED_PRODUCT_CATEGORY('Knob v7','Knob v7',(#266));
#263=APPLICATION_PROTOCOL_DEFINITION('international standard',
'automotive_design',2009,#264);
#264=APPLICATION_CONTEXT(
'Core Data for Automotive Mechanical Design Process');
#265=PRODUCT_CONTEXT('part definition',#264,'mechanical');
#266=PRODUCT('2026-09-19-14-53-57-368','Knob v7',$,(#265));
#267=PRESENTATION_STYLE_ASSIGNMENT((#269));
#268=PRESENTATION_STYLE_ASSIGNMENT((#270));
#269=SURFACE_STYLE_USAGE(.BOTH.,#271);
#270=SURFACE_STYLE_USAGE(.BOTH.,#272);
#271=SURFACE_SIDE_STYLE('',(#273));
#272=SURFACE_SIDE_STYLE('',(#274));
#273=SURFACE_STYLE_FILL_AREA(#275);
#274=SURFACE_STYLE_FILL_AREA(#276);
#275=FILL_AREA_STYLE('Steel - Satin',(#277));
#276=FILL_AREA_STYLE('Plastic - Glossy (Black)',(#278));
#277=FILL_AREA_STYLE_COLOUR('Steel - Satin',#279);
#278=FILL_AREA_STYLE_COLOUR('Plastic - Glossy (Black)',#280);
#279=COLOUR_RGB('Steel - Satin',0.627450980392157,0.627450980392157,0.627450980392157);
#280=COLOUR_RGB('Plastic - Glossy (Black)',0.0980392156862745,0.0980392156862745,
0.0980392156862745);
ENDSEC;
END-ISO-10303-21;
